<svg width="21" height="20" viewBox="0 0 21 20" fill="none" xmlns="http://www.w3.org/2000/svg">
<path d="M20.0109 9.99963C20.0109 4.47704 15.5312 0 10.0054 0C4.47963 0 0 4.47704 0 9.99963C0 14.6891 3.23015 18.6241 7.58852 19.7049V13.0555H5.5254V9.99963H7.58852V8.68288C7.58852 5.27941 9.12975 3.70186 12.4732 3.70186C13.1071 3.70186 14.2009 3.82586 14.6483 3.95026V6.72015C14.4122 6.69536 14.002 6.68296 13.4925 6.68296C11.852 6.68296 11.2181 7.30413 11.2181 8.91887V9.99963H14.4863L13.9248 13.0555H11.2181V19.9261C16.1724 19.3281 20.0113 15.1122 20.0113 9.99963" fill="white"/>
</svg>
