<svg width="56" height="56" viewBox="0 0 56 56" fill="none" xmlns="http://www.w3.org/2000/svg">
<path d="M7.73379 10.3827C17.4633 -0.810055 34.4245 -1.99591 45.6173 7.73358C56.81 17.4631 57.9959 34.4243 48.2664 45.6171C38.5369 56.8098 21.5756 57.9957 10.3829 48.2662C-0.809844 38.5362 -1.99621 21.5754 7.73379 10.3827Z" fill="#171720"/>
<path d="M28.0034 23.843L21.6417 17.4813C21.2258 17.0655 20.6658 16.8306 20.0685 16.8306H17.5796C16.7624 16.8306 16.0972 17.4886 16.0972 18.313V38.7598C16.0972 38.9791 16.2709 39.1533 16.4907 39.1533H18.7753C20.0084 39.1533 20.9992 38.1546 20.9992 36.9294V23.7523L26.9674 29.7204C27.5497 30.3027 28.4804 30.3027 29.0627 29.7204L35.0387 23.7523V36.9372C35.0387 38.1702 36.0373 39.1611 37.2626 39.1611H39.5394C39.7587 39.1611 39.933 38.9869 39.933 38.7675V18.313C39.933 17.4958 39.2749 16.8306 38.4505 16.8306H35.9616C35.3793 16.8306 34.8043 17.0649 34.3879 17.4813L28.0034 23.843Z" fill="white"/>
<path d="M14.002 3.74422L15.3257 6.03607C19.0549 3.88007 23.3892 2.63978 28.004 2.63978C32.6188 2.63978 36.9526 3.87282 40.6896 6.03607L42.0134 3.74422C37.8906 1.36163 33.1094 0 28.0113 0C22.9132 0 18.1169 1.36163 14.002 3.74422Z" fill="#E88B43"/>
<path d="M42.0054 3.74414L40.6816 6.03599C48.2613 10.4232 53.3599 18.6158 53.3599 27.9958H55.9997C55.9997 17.6327 50.3717 8.58503 42.0054 3.74414Z" fill="#E64B80"/>
<path d="M55.9997 27.9966H53.3599C53.3599 37.3838 48.2613 45.5764 40.6816 49.9636L42.0054 52.2482C50.3717 47.4068 55.9997 38.3597 55.9997 27.9966Z" fill="#9134AE"/>
<path d="M42.0056 52.248L40.6818 49.9634C36.9526 52.1194 32.6183 53.3597 27.9962 53.3597C23.3741 53.3597 19.0476 52.1266 15.3179 49.9634L13.9941 52.2552C18.1169 54.6378 22.8976 55.9995 27.9962 55.9995C33.0948 55.9995 37.8828 54.6378 42.0056 52.2475" fill="#5D9DEF"/>
<path d="M2.63978 27.9966H0C0 38.3597 5.628 47.4073 14.0021 52.2482L15.3259 49.9564C7.73889 45.5842 2.6403 37.3844 2.6403 27.9966" fill="#4FA963"/>
<path d="M2.63978 27.9962C2.63978 18.6089 7.73837 10.4163 15.3181 6.02916L13.9943 3.7373C5.628 8.58545 0 17.6326 0 27.9962H2.63978Z" fill="#F1C044"/>
</svg>
