<svg width="15" height="18" viewBox="0 0 15 18" fill="none" xmlns="http://www.w3.org/2000/svg">
<path d="M6.12767 7.02527V6.3136C5.88943 6.28128 5.64726 6.26074 5.39985 6.26074C2.42213 6.26118 0 8.68234 0 11.6579C0 13.4836 0.912725 15.0996 2.30542 16.0765C1.40668 15.1123 0.873383 13.8204 0.873383 12.4019C0.873383 9.46872 3.20896 7.09343 6.12767 7.02527Z" fill="white"/>
<path d="M6.2548 14.8817C7.58323 14.8817 8.68261 13.8105 8.73157 12.4946L8.74293 0.760601L10.8722 0.761474L10.8687 0.743999C10.8241 0.502407 10.7996 0.254262 10.7996 0H7.86562L7.86081 11.7506C7.81141 13.0665 6.72777 14.1224 5.39934 14.1224C4.98669 14.1224 4.59764 14.0193 4.25537 13.8393C4.70343 14.4601 5.43168 14.8817 6.25436 14.8817" fill="white"/>
<path d="M14.8815 4.76704V4.07852C14.0619 4.07852 13.2991 3.83519 12.6587 3.41797C13.2287 4.07197 14.0029 4.57875 14.8815 4.76704Z" fill="white"/>
<path d="M10.7997 11.6577V5.69918C11.9502 6.52444 13.3599 7.01112 14.8811 7.01112V4.73238C14.0025 4.54452 13.2283 4.0727 12.6583 3.41869C11.739 2.81974 11.0755 1.86123 10.8687 0.744141H8.72067L8.71586 12.4948C8.66647 13.8107 7.58283 14.8666 6.25439 14.8666C5.43172 14.8666 4.70346 14.4603 4.2554 13.8395C3.47032 13.4266 2.93309 12.6044 2.93309 11.6582C2.93309 10.299 4.03946 9.19332 5.39937 9.19332C5.65334 9.19332 5.89682 9.23526 6.12719 9.30734V7.0085C3.20848 7.07665 0.85498 9.46898 0.85498 12.4022C0.85498 13.8207 1.4062 15.1125 2.30494 16.0767C3.18182 16.6923 4.24885 17.0549 5.39937 17.0549C8.37709 17.0549 10.7992 14.6337 10.7992 11.6582" fill="white"/>
</svg>
