<svg width="25" height="17" viewBox="0 0 25 17" fill="none" xmlns="http://www.w3.org/2000/svg">
<path d="M23.5118 2.64C23.2362 1.60091 22.4216 0.782727 21.3887 0.504545C19.5167 0 12.0069 0 12.0069 0C12.0069 0 4.49715 0 2.62516 0.504545C1.59229 0.782727 0.777723 1.60091 0.502109 2.64C0 4.52455 0 8.45455 0 8.45455C0 8.45455 0 12.3845 0.502109 14.2691C0.779087 15.3082 1.59229 16.1264 2.62516 16.4045C4.49851 16.9091 12.0069 16.9091 12.0069 16.9091C12.0069 16.9091 19.5167 16.9091 21.3887 16.4045C22.4216 16.1264 23.2362 15.3082 23.5118 14.2691C24.0139 12.3859 24.0139 8.45455 24.0139 8.45455C24.0139 8.45455 24.0139 4.52455 23.5118 2.64Z" fill="white"/>
<path d="M9.55078 12.023V4.88574L15.8271 8.45438L9.55078 12.023Z" fill="#4C0EC9"/>
</svg>
